<svg width="290" height="61" viewBox="0 0 290 61" fill="none" xmlns="http://www.w3.org/2000/svg">
<path d="M2 27C6.83846 27 13.0224 23.5312 17 21C21.9695 17.8376 27.9578 16.3474 33.5 14.5C46.7771 10.0743 60.1015 5.43035 74 3.5C84.417 2.05319 98.1063 -0.446838 108 4.5C115.089 8.04433 120.435 13.2797 127 17.5C134.569 22.3659 139.543 31.3363 147 36.7778C152.568 40.841 159.618 42.8289 166 45.2222C174.082 48.253 182.854 52.037 191.222 54C210.988 58.6364 234.09 60.9093 254 56C261.854 54.0634 269.693 52.3648 277 48.7778C280.174 47.2198 284.381 44 288 44" stroke="white" stroke-width="3" stroke-linecap="round"/>
</svg>
